<?xml version="1.0" encoding="utf-8"?>
<!-- Generator: Adobe Illustrator 25.4.1, SVG Export Plug-In . SVG Version: 6.00 Build 0)  -->
<svg version="1.1" id="Capa_1" xmlns="http://www.w3.org/2000/svg" xmlns:xlink="http://www.w3.org/1999/xlink" x="0px" y="0px"
	 viewBox="0 0 196.77 85.11" style="enable-background:new 0 0 196.77 85.11;" xml:space="preserve">
<style type="text/css">
	.st0{fill:#E62A36;}
	.st1{fill:#010202;}
	.st2{fill:#FFFFFF;}
</style>
<g>
	<path class="st0" d="M0,16.51v68.6c0,0,65.02-13.45,196.77,0v-68.6l-11.41,1.56c0.06-3.47,0.12-6.94,0.18-10.41
		c-8.91,0.85-17.82,1.7-26.72,2.55l-0.51-9.02L134.6,3.91V0c0,0-55.63,3.57-69.58,0v4.77L38.13,1.19l-0.17,8.68L9.87,5.45v11.57
		L0,16.51z"/>
	<g>
		<g>
			<path class="st1" d="M192.36,49.81c0-7.93,0-15.87,0-23.8c-4.16,0.56-8.32,1.09-12.49,1.57c0.01-4.55,0.01-9.1,0.02-13.65
				c-4.92,0.74-9.84,1.42-14.77,2.02c-1.29,0.26-2.67,0.49-4.13,0.66c-1.78,0.22-3.45,0.33-4.98,0.38
				c-11.28,1.2-22.59,2.04-33.91,2.53c0,0,0,0,0,0c-4.05,0.4-8.25,0.69-12.6,0.86c-4.6,0.18-9.04,0.21-13.31,0.11c0,0,0,0,0,0
				c-5.62-0.17-11.24-0.43-16.86-0.78c0,0,0,0,0,0c-3.5-0.12-6.99-0.28-10.49-0.47c-4.69-0.25-9.37-0.57-14.05-0.94
				c-3.65-0.29-7.29-0.62-10.93-0.98c-9.27-0.93-18.53-2.09-27.76-3.5c0.01,4.56,0.01,9.12,0.02,13.68
				c-3.95-0.47-7.89-0.96-11.83-1.5c0,7.93,0,15.87,0,23.8c3.95,0.27,7.9,0.53,11.86,0.77c0,0.42,0,0.84,0,1.25
				c-3.95-0.23-7.91-0.47-11.86-0.73c0,7.93,0,15.87,0,23.8c3.96,0,7.92,0,11.89,0c3.19,0,6.37,0,9.56,0c6.09,0,12.18,0,18.27,0
				c3.64,0,7.28,0,10.92,0c4.67,0,9.35,0,14.02,0c3.65,0,7.31,0,10.96,0c4.69,0,9.37,0,14.06,0c0,0,0,0,0,0c0,0,0,0,0,0
				c0,0,8.85-0.01,8.86-0.01c1.52,0.01,3.05,0.01,4.6,0c4.98-0.03,9.84-0.13,14.6-0.31c0,0,0,0,0,0c8.35,0.1,16.7,0.21,25.06,0.32
				c3.61,0,7.23,0,10.84,0c1.53,0,3.05,0,4.58,0c0,0,0,0,0,0c3.07,0,6.13,0,9.2,0c6.89,0,13.78,0,20.67,0c0-7.93,0-15.87,0-23.8
				c-3.71,0.24-7.42,0.47-11.13,0.69c-0.03-0.43-0.07-0.85-0.12-1.25C184.86,50.31,188.61,50.07,192.36,49.81z"/>
			<path class="st2" d="M18.67,34.54c0,3.15,0.01,6.29,0.01,9.44c-2.48-0.19-4.95-0.38-7.42-0.58c0-3.21,0-6.41-0.01-9.62
				C13.72,34.05,16.2,34.3,18.67,34.54z M18.7,58.72c0,3.15,0.01,6.29,0.01,9.44c-2.48-0.04-4.96-0.08-7.44-0.13
				c0-3.21,0-6.41-0.01-9.62C13.75,58.52,16.23,58.62,18.7,58.72z"/>
			<path class="st2" d="M47.79,24.06c0.01,3.79,0.02,7.58,0.03,11.37c-0.87-0.06-1.74-0.11-2.61-0.17
				c0.02,7.1,0.03,14.21,0.05,21.31c0.87,0.03,1.74,0.05,2.61,0.08c0.01,3.97,0.02,7.93,0.03,11.9c-3.77-0.04-7.53-0.08-11.3-0.13
				c-0.01-4.05-0.02-8.09-0.03-12.14c0.42,0.02,0.83,0.03,1.25,0.04c-0.01-2.94-0.01-5.88-0.02-8.83c-1.56-0.08-3.12-0.17-4.67-0.25
				c0.01,2.97,0.01,5.94,0.02,8.91c0.43,0.02,0.86,0.03,1.29,0.05c0.01,4.06,0.02,8.13,0.03,12.19c-3.77-0.05-7.53-0.1-11.3-0.16
				c-0.01-4.16-0.01-8.33-0.02-12.49c0.86,0.04,1.71,0.08,2.57,0.11c-0.01-7.38-0.03-14.77-0.04-22.15
				c-0.86-0.08-1.71-0.16-2.57-0.24c-0.01-3.98-0.01-7.96-0.02-11.94c3.76,0.46,7.51,0.89,11.28,1.29
				c0.01,3.89,0.02,7.77,0.03,11.66c-0.43-0.03-0.86-0.07-1.28-0.11c0.01,2.73,0.01,5.47,0.02,8.2c1.56,0.1,3.12,0.2,4.67,0.3
				c-0.01-2.71-0.01-5.42-0.02-8.13c-0.42-0.03-0.83-0.06-1.25-0.1c-0.01-3.87-0.02-7.74-0.03-11.61
				C40.26,23.4,44.03,23.75,47.79,24.06z"/>
			<path class="st2" d="M72.31,25.59c0.01,5.75,0.02,11.51,0.03,17.26c-2.06-0.06-4.11-0.12-6.17-0.19c0-2.09-0.01-4.18-0.01-6.26
				c-1.74-0.07-3.49-0.15-5.23-0.23c0.01,2.61,0.01,5.22,0.02,7.84c2.17,0.08,4.34,0.16,6.52,0.22c0,1.48,0.01,2.96,0.01,4.45
				c-2.17-0.06-4.34-0.12-6.51-0.19c0.01,2.84,0.01,5.67,0.02,8.51c1.74,0.04,3.48,0.07,5.23,0.11c0-2.11-0.01-4.22-0.01-6.33
				c2.22,0.06,4.45,0.11,6.67,0.15c0.01,5.94,0.02,11.88,0.03,17.82c-7.3-0.04-14.6-0.09-21.91-0.16
				c-0.01-3.95-0.02-7.89-0.03-11.84c0.86,0.02,1.72,0.05,2.57,0.07c-0.02-7.01-0.03-14.02-0.05-21.03
				c-0.86-0.05-1.72-0.1-2.57-0.15c-0.01-3.77-0.02-7.55-0.03-11.32C58.01,24.86,65.16,25.29,72.31,25.59z"/>
			<path class="st2" d="M102.55,52.89c0.29,2.4,0.43,4.44,0.43,6.13c0,6.73-2.01,10.1-6.01,10.1c-3.82,0-5.73-3.51-5.74-10.52
				c0.01-0.94,0.02-1.88,0.04-2.82c0.01-0.95,0.03-1.9,0.04-2.85c0-2.57-1.54-3.85-4.61-3.88c-0.1,0-0.34,0.01-0.7,0.02
				c0,2.76,0,5.52,0.01,8.27c0.94,0.01,1.87,0.01,2.81,0.02c0,3.81,0,7.62,0.01,11.43c-4.3-0.01-8.6-0.02-12.9-0.04
				c-0.01-3.84-0.01-7.67-0.02-11.51c0.88,0.01,1.77,0.02,2.65,0.03c-0.01-6.83-0.02-13.65-0.03-20.48
				c-0.89-0.02-1.77-0.05-2.66-0.07c-0.01-3.67-0.01-7.33-0.02-11c4.04,0.15,8.08,0.26,12.12,0.32c4.4,0.07,7.35,0.84,8.84,2.35
				c1.49,1.51,2.23,4.51,2.23,8.99c0,5.44-2.07,8.56-6.21,9.33c-0.21,0.04-0.51,0.09-0.9,0.15c3.54,0.5,5.4,1.78,5.58,3.86
				c0.07,0.98,0.13,1.96,0.2,2.94c0.05,0.78,0.1,1.56,0.16,2.34c0.08,1.19,0.49,1.78,1.25,1.78c1.07,0,1.6-1.41,1.6-4.22
				c0-0.23,0-0.46,0-0.69C101.33,52.89,101.94,52.89,102.55,52.89z M86,44.85c0.29,0,0.57,0.01,0.86,0.01c3.33,0.04,5-1.19,5-3.65
				c0-2.82-1.62-4.23-4.85-4.28c-0.21,0-0.55,0-1.02,0.02C86,39.58,86,42.22,86,44.85z"/>
			<path class="st2" d="M104.97,52.6c0-3.17,0-6.34,0-9.51c0-7.17,0.7-11.92,2.08-14.24c1.38-2.32,4.22-3.52,8.52-3.64
				c4.04-0.12,6.73,0.97,8.08,3.33c1.35,2.36,2.02,7.11,2.01,14.24c-0.01,3.19-0.01,6.37-0.02,9.56c-0.01,6.58-0.75,11.09-2.21,13.5
				c-1.46,2.41-4.19,3.62-8.19,3.63c-4.08,0.01-6.81-1.13-8.2-3.41C105.66,63.78,104.97,59.29,104.97,52.6z M112.83,43.16
				c0,2.66-0.01,5.31-0.01,7.97c0,4.16,0.85,6.23,2.57,6.22c1.61-0.02,2.42-2.13,2.43-6.35c0-2.74,0.01-5.47,0.01-8.21
				c-0.03-0.62-0.05-1.24-0.08-1.85c-0.01-0.43-0.02-0.86-0.04-1.29c-0.1-1.8-0.89-2.68-2.38-2.65
				C113.67,37.03,112.83,39.08,112.83,43.16z"/>
			<path class="st2" d="M150.52,23.92c-0.01,5.95-0.03,11.9-0.04,17.84c-2.05,0.11-4.11,0.22-6.16,0.32c0-2.13,0.01-4.25,0.01-6.38
				c-1.74,0.1-3.48,0.2-5.23,0.29c-0.01,2.62-0.01,5.25-0.02,7.87c2.17-0.09,4.34-0.19,6.51-0.29c0,1.51-0.01,3.03-0.01,4.54
				c-2.17,0.09-4.34,0.17-6.51,0.25c-0.01,2.85-0.01,5.7-0.02,8.55c1.74-0.04,3.48-0.09,5.22-0.13c0-2.15,0.01-4.29,0.01-6.44
				c2.22-0.08,4.44-0.17,6.67-0.26c-0.01,6.15-0.03,12.3-0.04,18.45c-7.3,0.08-14.6,0.14-21.9,0.19c0.01-3.86,0.01-7.73,0.02-11.59
				c0.86-0.02,1.72-0.03,2.57-0.05c0.01-6.91,0.03-13.82,0.04-20.73c-0.86,0.04-1.72,0.07-2.58,0.1c0.01-3.69,0.01-7.39,0.02-11.08
				C136.25,25.01,143.39,24.53,150.52,23.92z"/>
			<path class="st2" d="M172.9,21.6c-0.01,5.48-0.02,10.96-0.03,16.44c-2.36,0.2-4.72,0.39-7.08,0.57c-0.04-0.4-0.08-0.8-0.11-1.2
				c-0.15-2.07-0.82-3.06-2.02-2.96c-1.45,0.12-2.18,0.97-2.18,2.55c0,1.8,1.25,3.28,3.77,4.45c3.97,1.87,6.48,3.69,7.56,5.44
				c1.07,1.74,1.61,4.9,1.6,9.45c-0.01,8.45-2.46,12.7-7.34,12.75c-2.62,0.03-4.72-1.28-6.3-3.89c0,1.08,0,2.15-0.01,3.23
				c-2.22,0.03-4.44,0.06-6.66,0.08c0.01-5.69,0.03-11.38,0.04-17.07c2.22-0.09,4.44-0.19,6.66-0.3c0,0.22,0,0.44,0,0.67
				c-0.01,3,0.91,4.46,2.76,4.39c1.71-0.06,2.57-1.16,2.57-3.3c0-2.2-0.96-3.82-2.91-4.85c-1.3-0.7-2.59-1.39-3.89-2.08
				c-3.89-2.07-5.83-5.66-5.82-10.83c0.02-8.14,2.41-12.41,7.16-12.92c2.36-0.25,4.23,0.87,5.59,3.4c0-1.08,0-2.16,0.01-3.23
				C168.47,22.13,170.68,21.87,172.9,21.6z"/>
			<path class="st2" d="M185.39,33.78c0,3.21,0,6.41-0.01,9.62c-2.47,0.2-4.95,0.4-7.42,0.58c0-3.15,0.01-6.29,0.01-9.44
				C180.44,34.3,182.91,34.05,185.39,33.78z M185.37,58.41c0,3.21,0,6.41-0.01,9.62c-2.48,0.04-4.96,0.09-7.44,0.13
				c0-3.15,0.01-6.29,0.01-9.44C180.41,58.62,182.89,58.52,185.37,58.41z"/>
		</g>
	</g>
	<g>
		<g>
			<g>
				<path class="st2" d="M72.13,12.71c0,0.88,0.01,1.75,0.01,2.63c-0.94,0-1.87,0-2.81-0.01c0-0.91,0-1.82,0-2.74
					c0.2,0.01,0.4,0.02,0.6,0.03c-0.06-0.46-0.12-0.92-0.18-1.39c-0.42-0.03-0.83-0.05-1.25-0.08c-0.06,0.46-0.12,0.93-0.18,1.4
					c0.22,0.01,0.43,0.02,0.65,0.03c0,0.92,0,1.83,0,2.75c-0.78,0-1.56,0-2.34-0.01c0-0.95,0-1.9,0-2.85
					c0.18,0.01,0.36,0.02,0.53,0.03c0.38-2.56,0.76-5.08,1.14-7.56c0.71,0.11,1.42,0.23,2.13,0.33c0.4,2.52,0.8,4.99,1.2,7.42
					C71.8,12.7,71.97,12.71,72.13,12.71z M69.59,10.18c-0.16-1.06-0.31-2.12-0.47-3.19c-0.16,1.03-0.32,2.07-0.48,3.12
					C68.96,10.13,69.27,10.16,69.59,10.18z"/>
				<path class="st2" d="M83.27,6.75c0,0.73,0.01,1.47,0.01,2.2c-0.18-0.01-0.36-0.02-0.54-0.03c-0.36,2.12-0.73,4.27-1.09,6.44
					c-0.48,0-0.96,0-1.44,0c-0.19-1.23-0.38-2.47-0.57-3.72c-0.19,1.23-0.39,2.47-0.58,3.72c-0.49,0-0.98,0-1.47,0
					c-0.4-2.27-0.8-4.57-1.19-6.91c-0.19-0.02-0.37-0.03-0.56-0.05c0-0.8-0.01-1.59-0.01-2.39c0.82,0.1,1.64,0.19,2.46,0.28
					c0,0.77,0.01,1.55,0.01,2.32c-0.12-0.01-0.25-0.02-0.37-0.03c0.18,1.22,0.37,2.44,0.55,3.65c0.18-1.2,0.37-2.38,0.55-3.56
					c-0.14-0.01-0.27-0.02-0.41-0.03c0-0.77-0.01-1.54-0.01-2.31c0.78,0.08,1.56,0.16,2.34,0.23c0,0.75,0.01,1.5,0.01,2.25
					c-0.13-0.01-0.27-0.02-0.4-0.03c0.18,1.15,0.37,2.3,0.55,3.44c0.17-1.13,0.34-2.25,0.51-3.37c-0.13-0.01-0.26-0.02-0.39-0.03
					c0-0.75-0.01-1.5-0.01-2.24C81.9,6.64,82.59,6.7,83.27,6.75z"/>
				<path class="st2" d="M91.89,7.24c0,1.08,0.01,2.17,0.01,3.25c-0.45-0.01-0.89-0.02-1.34-0.03c0-0.39,0-0.79,0-1.18
					c-0.38-0.01-0.76-0.02-1.14-0.04c0,0.49,0,0.98,0.01,1.48c0.47,0.01,0.95,0.02,1.42,0.03c0,0.28,0,0.56,0,0.84
					c-0.47-0.01-0.95-0.02-1.42-0.03c0,0.53,0,1.07,0.01,1.6c0.38,0,0.76,0.01,1.14,0.01c0-0.4,0-0.79,0-1.19
					c0.48,0.01,0.97,0.02,1.45,0.02c0,1.12,0.01,2.24,0.01,3.36c-1.59,0-3.18,0-4.77,0c0-0.74-0.01-1.49-0.01-2.23
					c0.19,0,0.37,0.01,0.56,0.01c-0.01-1.32-0.01-2.64-0.02-3.96c-0.19-0.01-0.37-0.02-0.56-0.02c0-0.71-0.01-1.42-0.01-2.13
					C88.78,7.12,90.33,7.19,91.89,7.24z"/>
				<path class="st2" d="M100.27,7.33c0,0.94,0,1.89,0,2.83c-0.52,0-1.03,0.01-1.55,0.01c-0.01-0.07-0.02-0.14-0.03-0.21
					c-0.03-0.36-0.18-0.55-0.44-0.55c-0.32,0-0.48,0.14-0.48,0.42c0,0.32,0.28,0.59,0.82,0.83c0.87,0.37,1.42,0.72,1.65,1.03
					c0.23,0.31,0.35,0.86,0.35,1.64c0,1.45-0.53,2.17-1.6,2.17c-0.57,0-1.03-0.23-1.37-0.7c0,0.19,0,0.38,0,0.57
					c-0.48,0-0.97,0-1.45,0c0-1.02,0-2.04,0-3.05c0.48,0,0.97,0,1.45,0c0,0.04,0,0.08,0,0.12c0,0.53,0.2,0.79,0.6,0.79
					c0.37,0,0.56-0.19,0.56-0.56c0-0.38-0.21-0.68-0.64-0.88c-0.28-0.14-0.57-0.27-0.85-0.41c-0.85-0.41-1.28-1.07-1.28-2
					c0-1.46,0.52-2.18,1.56-2.18c0.52,0,0.92,0.23,1.23,0.7c0-0.19,0-0.38,0-0.56C99.3,7.34,99.78,7.34,100.27,7.33z"/>
				<path class="st2" d="M104.63,12.28c0-0.6,0-1.21,0.01-1.81c0-1.37,0.16-2.27,0.46-2.72c0.3-0.45,0.92-0.69,1.86-0.74
					c0.88-0.04,1.46,0.16,1.76,0.6c0.29,0.45,0.44,1.36,0.43,2.74c0,0.62-0.01,1.23-0.01,1.85c-0.01,1.27-0.17,2.14-0.49,2.61
					c-0.32,0.46-0.91,0.69-1.78,0.69c-0.89,0-1.48-0.22-1.78-0.65C104.78,14.41,104.63,13.56,104.63,12.28z M106.35,10.46
					c0,0.51,0,1.02-0.01,1.53c0,0.8,0.18,1.19,0.56,1.19c0.35,0,0.53-0.41,0.53-1.22c0-0.53,0-1.05,0.01-1.58
					c-0.01-0.12-0.01-0.24-0.02-0.36c0-0.08,0-0.17-0.01-0.25c-0.02-0.35-0.19-0.51-0.52-0.5C106.53,9.28,106.35,9.68,106.35,10.46z
					"/>
				<path class="st2" d="M120.77,5.97c0,0.8-0.01,1.6-0.01,2.4c-0.19,0.02-0.38,0.03-0.58,0.05c-0.01,1.48-0.01,2.96-0.02,4.44
					c0.19-0.01,0.38-0.01,0.58-0.02c0,0.84-0.01,1.67-0.01,2.51c-0.9,0-1.79,0-2.69,0c0-0.81,0.01-1.62,0.01-2.43
					c0.16,0,0.33-0.01,0.49-0.01c0.01-1.66,0.02-3.32,0.02-4.98c-0.45,2.51-0.9,4.99-1.36,7.43c-0.22,0-0.45,0-0.67,0
					c-0.47-2.4-0.93-4.76-1.4-7.08c-0.01,1.58-0.02,3.16-0.02,4.73c0.19,0,0.38-0.01,0.57-0.01c0,0.79-0.01,1.58-0.01,2.36
					c-0.78,0-1.56,0-2.34,0c0-0.77,0.01-1.54,0.01-2.31c0.19,0,0.37-0.01,0.56-0.01c0.01-1.38,0.01-2.76,0.02-4.14
					c-0.19,0.01-0.37,0.02-0.56,0.04c0-0.74,0.01-1.47,0.01-2.21c0.99-0.08,1.97-0.17,2.96-0.27c0.25,1.33,0.5,2.68,0.74,4.03
					c0.26-1.38,0.53-2.78,0.79-4.19C118.84,6.19,119.8,6.08,120.77,5.97z"/>
				<path class="st2" d="M129.53,4.68c0,1.42,0,2.84,0,4.26c-0.44,0.05-0.89,0.09-1.33,0.13c0-0.5,0-1,0-1.5
					c-0.38,0.05-0.75,0.09-1.13,0.14c0,0.61,0,1.23,0,1.84c0.47-0.04,0.94-0.09,1.41-0.13c0,0.36,0,0.72,0,1.07
					c-0.47,0.04-0.94,0.07-1.41,0.11c0,0.67,0,1.33,0,2c0.38-0.02,0.76-0.03,1.13-0.05c0-0.51,0-1.01,0-1.52
					c0.48-0.03,0.96-0.07,1.45-0.1c0,1.47,0,2.94,0,4.41c-1.59,0-3.18,0.01-4.77,0.01c0-0.88,0-1.77,0.01-2.65
					c0.19-0.01,0.37-0.02,0.56-0.02c0-1.59,0.01-3.18,0.01-4.77c-0.19,0.02-0.37,0.04-0.56,0.06c0-0.85,0-1.69,0.01-2.54
					C126.44,5.19,127.99,4.94,129.53,4.68z"/>
			</g>
		</g>
		<circle class="st2" cx="44.52" cy="8.59" r="1.99"/>
		<circle class="st2" cx="52.08" cy="9.52" r="1.99"/>
		<circle class="st2" cx="60.34" cy="10.12" r="1.99"/>
		<circle class="st2" cx="136.59" cy="10.57" r="1.99"/>
		<circle class="st2" cx="144.68" cy="9.52" r="1.99"/>
		<circle class="st2" cx="152" cy="8.59" r="1.99"/>
	</g>
</g>
</svg>
